<mxfile host="app.diagrams.net" modified="2024-05-10T13:52:08.893Z" agent="Mozilla/5.0 (X11; Ubuntu; Linux x86_64; rv:125.0) Gecko/20100101 Firefox/125.0" version="24.3.1" etag="6HRieARN3bZD1NKywPag" type="github">
  <diagram name="Page-1" id="m6jEA_6MPZwp4ZkRmm5w">
    <mxGraphModel>
      <root>
        <mxCell id="0" />
        <mxCell id="1" parent="0" />
      </root>
    </mxGraphModel>
  </diagram>
</mxfile>
